<svg width="51" height="51" viewBox="0 0 51 51" fill="none" xmlns="http://www.w3.org/2000/svg">
<rect width="51" height="51" rx="10" fill="#DEDEDE"/>
<mask id="mask0_75_4712" style="mask-type:alpha" maskUnits="userSpaceOnUse" x="1" y="1" width="49" height="49">
<rect x="1.5" y="1.5" width="48" height="48" fill="#D9D9D9"/>
</mask>
<g mask="url(#mask0_75_4712)">
<path d="M12.8 36.4C14.7667 34.9889 16.7889 33.8972 18.8667 33.125C20.9445 32.3528 23.1556 31.9667 25.5 31.9667C27.8444 31.9667 30.0611 32.3528 32.15 33.125C34.2389 33.8972 36.2667 34.9889 38.2334 36.4C39.6 34.7444 40.5972 33.0167 41.225 31.2167C41.8528 29.4167 42.1667 27.5111 42.1667 25.5C42.1667 20.8 40.5639 16.8472 37.3584 13.6417C34.1528 10.4361 30.2 8.8333 25.5 8.8333C20.8 8.8333 16.8472 10.4361 13.6417 13.6417C10.4361 16.8472 8.8333 20.8 8.8333 25.5C8.8333 27.5111 9.15275 29.4167 9.79165 31.2167C10.4306 33.0167 11.4333 34.7444 12.8 36.4ZM25.4938 27.1667C23.5535 27.1667 21.9195 26.5007 20.5917 25.1688C19.2639 23.8369 18.6 22.2008 18.6 20.2605C18.6 18.3202 19.266 16.6861 20.5979 15.3584C21.9298 14.0306 23.5659 13.3667 25.5062 13.3667C27.4465 13.3667 29.0806 14.0326 30.4084 15.3646C31.7361 16.6965 32.4 18.3326 32.4 20.2729C32.4 22.2132 31.7341 23.8472 30.4022 25.175C29.0702 26.5028 27.4341 27.1667 25.4938 27.1667ZM25.5156 45.5C22.7608 45.5 20.1667 44.975 17.7334 43.925C15.3 42.875 13.1778 41.4445 11.3667 39.6334C9.55555 37.8222 8.125 35.7026 7.075 33.2745C6.025 30.8463 5.5 28.2519 5.5 25.4912C5.5 22.7304 6.025 20.1389 7.075 17.7167C8.125 15.2945 9.55555 13.1778 11.3667 11.3667C13.1778 9.55555 15.2974 8.125 17.7256 7.075C20.1537 6.025 22.7481 5.5 25.5089 5.5C28.2696 5.5 30.8611 6.025 33.2834 7.075C35.7056 8.125 37.8222 9.55555 39.6334 11.3667C41.4445 13.1778 42.875 15.2948 43.925 17.7178C44.975 20.1407 45.5 22.7296 45.5 25.4844C45.5 28.2392 44.975 30.8333 43.925 33.2667C42.875 35.7 41.4445 37.8222 39.6334 39.6334C37.8222 41.4445 35.7052 42.875 33.2823 43.925C30.8593 44.975 28.2704 45.5 25.5156 45.5ZM25.5 42.1667C27.3111 42.1667 29.0611 41.9028 30.75 41.375C32.4389 40.8472 34.0667 39.9778 35.6334 38.7667C34.0667 37.6445 32.4334 36.7861 30.7334 36.1917C29.0334 35.5972 27.2889 35.3 25.5 35.3C23.7111 35.3 21.9667 35.5972 20.2667 36.1917C18.5667 36.7861 16.9333 37.6445 15.3667 38.7667C16.9333 39.9778 18.5611 40.8472 20.25 41.375C21.9389 41.9028 23.6889 42.1667 25.5 42.1667ZM25.5 23.8334C26.5444 23.8334 27.4 23.5 28.0667 22.8334C28.7334 22.1667 29.0667 21.3111 29.0667 20.2667C29.0667 19.2222 28.7334 18.3667 28.0667 17.7C27.4 17.0333 26.5444 16.7 25.5 16.7C24.4556 16.7 23.6 17.0333 22.9333 17.7C22.2666 18.3667 21.9333 19.2222 21.9333 20.2667C21.9333 21.3111 22.2666 22.1667 22.9333 22.8334C23.6 23.5 24.4556 23.8334 25.5 23.8334Z" fill="#7D7E80"/>
</g>
</svg>
